<?xml version="1.0" encoding="UTF-8" standalone="no"?>
<svg width="88px" height="88px" viewBox="0 0 88 88" version="1.1" xmlns="http://www.w3.org/2000/svg" xmlns:xlink="http://www.w3.org/1999/xlink">
    <!-- Generator: Sketch 39.1 (31720) - http://www.bohemiancoding.com/sketch -->
    <title>ico-circle-cross</title>
    <desc>Created with Sketch.</desc>
    <defs></defs>
    <g id="TESTE-MAURICIO" stroke="none" stroke-width="1" fill="none" fill-rule="evenodd">
        <g id="ico-circle-cross" fill="#000000">
            <g id="Combined-Shape">
                <path d="M44.6975524,49.6299931 L54.927678,59.8601187 C56.3605523,61.2929929 58.6259428,61.3502942 59.9881185,59.9881185 C61.3502942,58.6259428 61.2929929,56.3605523 59.8601187,54.927678 L49.6299931,44.6975524 L59.8601187,34.4674269 C61.2929929,33.0345526 61.3502942,30.7691621 59.9881185,29.4069864 C58.6259428,28.0448107 56.3605523,28.102112 54.927678,29.5349862 L44.6975524,39.7651118 L34.4674269,29.5349862 C33.0345526,28.102112 30.7691621,28.0448107 29.4069864,29.4069864 C28.0448107,30.7691621 28.102112,33.0345526 29.5349862,34.4674269 L39.7651118,44.6975524 L29.5349862,54.927678 C28.102112,56.3605523 28.0448107,58.6259428 29.4069864,59.9881185 C30.7691621,61.3502942 33.0345526,61.2929929 34.4674269,59.8601187 L44.6975524,49.6299931 Z M44,6 C23.0126,6 6,23.0126 6,44 C6,64.9861333 23.0126,82 44,82 C64.9861333,82 82,64.9861333 82,44 C82,23.0126 64.9861333,6 44,6 Z"></path>
            </g>
        </g>
    </g>
</svg>