<?xml version="1.0" encoding="utf-8"?>
<!-- Generator: Adobe Illustrator 18.1.1, SVG Export Plug-In . SVG Version: 6.00 Build 0)  -->
<svg version="1.1" id="Layer_1" xmlns="http://www.w3.org/2000/svg" xmlns:xlink="http://www.w3.org/1999/xlink" x="0px" y="0px"
	 viewBox="-243.5 229 25 24" enable-background="new -243.5 229 25 24" xml:space="preserve">
<title>ico-loggi</title>
<desc>Created with Sketch.</desc>
<g id="New-icons">
	<g id="ico-loggi">
		<path id="Fill-4" fill="#FFFFFF" d="M-237,251.7c-0.3,0.2-0.4,0.7,0,1c0.4,0.2,1.8-0.5,1.8-0.5l-1.4-0.4
			C-236.5,251.6-236.7,251.6-237,251.7z M-219.2,237.7c0,0-1.2-2.1-2.2-2.7c-0.6-0.3-1.3-0.6-1.6-0.7c-0.1-0.1-0.1-0.1-0.1-0.1
			s-3.5-2.5-5.1-3.2c-1.6-0.7-4.3-2.1-7-2c-2.2,0.1-3.5,0.5-4,0.6c-0.6,0.1-0.9,0.3-0.3,0.6c0.2,0.1,1.1,0.6,2.1,1.2
			c1.5,0.9,3.5,1.9,4.3,2.1c0.8,0.2,2.1,0.5,3.8,0.4c1.9,0,2.9,0.8,3.1,1.1c-0.3-0.5-1.7-0.9-3.4-0.8c-1.7,0.1-3.1,0-3.9-0.2
			c-1.6-0.5-3.2-1.2-4.6-1.8c-0.6,0.2-0.9,0.3-1.1,0.4c-0.5,0.2-0.9,0.6-0.3,0.8c0.5,0.1,5.1,1.8,6.4,1.9c0.8,0,2,0.1,3.5-0.2
			c1.7-0.3,2.6,0.4,2.9,0.7c-0.5,0.8-0.9,1.8-0.8,2.8c-6.3-1.1-8.4-1.7-9.8-1.9c-2.5-0.4-5.7,1.7-6.1,4.3c-0.2,1.5,0.2,2.9,1.1,4.2
			c1,1.4,2.3,2.7,2.5,2.9c0.1,0.2,0.1,0.8,0.1,1.2c0,0.4,0.6,0.8,0.9,0.9c0.2,0,3.9,1.2,3.9,1.2l5.6,1.7c0,0,0.1-0.4,0.1-0.5
			c0-0.4-0.3-1.4-1.6-1.8c-1.9-0.6-2.3-0.7-2.7-0.8c-0.2-0.1-0.1-0.1,0.3-0.3c0.6-0.5,1.1-1.2,1.3-1.7c1.1-2.4-0.3-4.6-0.3-4.6
			s0.9,0.9,1.2,2.6c0.4,2-1,3.7-1,3.7l0.8,0.2c0,0,5.3-5.4,5.9-6c0.4-0.5,1.2-0.8,1.6-0.9c1.4-0.4,3.2-1.2,3.7-1.5
			c0.5-0.3,1-1.3,1.1-1.6c0.1-0.3,0.3-0.6,0.4-1C-218.4,238.8-219.2,237.7-219.2,237.7z"/>
	</g>
</g>
</svg>
