<?xml version="1.0" encoding="utf-8"?>
<!-- Generator: Adobe Illustrator 18.1.1, SVG Export Plug-In . SVG Version: 6.00 Build 0)  -->
<svg version="1.1" id="Layer_1" xmlns="http://www.w3.org/2000/svg" xmlns:xlink="http://www.w3.org/1999/xlink" x="0px" y="0px"
	 viewBox="310.5 229.5 19 21" enable-background="new 310.5 229.5 19 21" xml:space="preserve">
<title>ico-android</title>
<desc>Created with Sketch.</desc>
<g id="New-icons">
	<g id="ico-android">
		<g id="Fill-1">
			<path fill="#FFFFFF" d="M311.9,236.7c-0.7,0-1.3,0.6-1.3,1.3v4.9c0,0.7,0.6,1.3,1.3,1.3c0.7,0,1.3-0.6,1.3-1.3v-4.9
				C313.2,237.3,312.6,236.7,311.9,236.7z M322.4,234c-0.4,0-0.7-0.3-0.7-0.7s0.3-0.7,0.7-0.7c0.4,0,0.7,0.3,0.7,0.7
				S322.8,234,322.4,234z M317.5,234c-0.4,0-0.7-0.3-0.7-0.7s0.3-0.7,0.7-0.7c0.4,0,0.7,0.3,0.7,0.7S317.9,234,317.5,234L317.5,234z
				 M325.1,230.4c0.2-0.2,0.2-0.6,0-0.8c-0.1-0.1-0.2-0.1-0.4-0.1s-0.3,0.1-0.4,0.1l-1.4,1.4c-0.9-0.6-1.9-0.9-2.9-0.9
				s-2.1,0.3-2.9,0.9l-1.4-1.4c-0.1-0.1-0.2-0.1-0.4-0.1l0,0c-0.1,0-0.3,0.1-0.4,0.1c-0.1,0.1-0.1,0.2-0.1,0.4s0.1,0.3,0.1,0.4
				l1.3,1.3c-0.9,0.9-1.4,2.2-1.4,3.5v0h10.3v0c0-1.3-0.5-2.5-1.4-3.5L325.1,230.4z M324.7,236.7h-9.5c-0.3,0-0.6,0.2-0.6,0.6v8.4
				c0,0.3,0.2,0.6,0.6,0.6h1v2.9c0,0.7,0.6,1.3,1.3,1.3s1.3-0.6,1.3-1.3v-2.9h2.1v2.9c0,0.7,0.6,1.3,1.3,1.3c0.7,0,1.3-0.6,1.3-1.3
				v-2.9h1c0.3,0,0.6-0.2,0.6-0.6v-8.4C325.3,237,325,236.7,324.7,236.7z M328.1,236.7c-0.7,0-1.3,0.6-1.3,1.3v4.9
				c0,0.7,0.6,1.3,1.3,1.3c0.7,0,1.3-0.6,1.3-1.3v-4.9C329.5,237.3,328.9,236.7,328.1,236.7z"/>
		</g>
	</g>
</g>
</svg>
