<?xml version="1.0" encoding="UTF-8" standalone="no"?>
<svg width="88px" height="88px" viewBox="0 0 88 88" version="1.1" xmlns="http://www.w3.org/2000/svg" xmlns:xlink="http://www.w3.org/1999/xlink">
    <!-- Generator: Sketch 39.1 (31720) - http://www.bohemiancoding.com/sketch -->
    <title>ico-circle-info</title>
    <desc>Created with Sketch.</desc>
    <defs></defs>
    <g id="TESTE-MAURICIO" stroke="none" stroke-width="1" fill="none" fill-rule="evenodd">
        <g id="ico-circle-info" fill="#000000">
            <g id="icon">
                <path d="M44,6 C23.0126,6 6,23.0126 6,44 C6,64.9861333 23.0126,82 44,82 C64.9861333,82 82,64.9861333 82,44 C82,23.0126 64.9861333,6 44,6 Z M39.7777778,26.9422222 C39.7777778,24.7034311 41.6679259,22.8888889 44,22.8888889 C46.3320741,22.8888889 48.2222222,24.7034311 48.2222222,26.9422222 L48.2222222,27.28 C48.2222222,29.5187911 46.3320741,31.3333333 44,31.3333333 C41.6679259,31.3333333 39.7777778,29.5187911 39.7777778,27.28 L39.7777778,26.9422222 Z M39.7777778,39.3691756 C39.7777778,37.2627861 41.6679259,35.5555556 44,35.5555556 C46.3320741,35.5555556 48.2222222,37.2627861 48.2222222,39.3691756 L48.2222222,61.297491 C48.2222222,63.4038805 46.3320741,65.1111111 44,65.1111111 C41.6679259,65.1111111 39.7777778,63.4038805 39.7777778,61.297491 L39.7777778,39.3691756 Z" id="Combined-Shape"></path>
            </g>
        </g>
    </g>
</svg>