<?xml version="1.0" encoding="utf-8"?>
<!-- Generator: Adobe Illustrator 18.1.1, SVG Export Plug-In . SVG Version: 6.00 Build 0)  -->
<svg version="1.1" id="Layer_1" xmlns="http://www.w3.org/2000/svg" xmlns:xlink="http://www.w3.org/1999/xlink" x="0px" y="0px"
	 viewBox="311.5 229.5 17 21" enable-background="new 311.5 229.5 17 21" xml:space="preserve">
<title>ico-apple</title>
<desc>Created with Sketch.</desc>
<g id="New-icons">
	<g id="ico-apple">
		<g id="Shape">
			<path fill="#FFFFFF" d="M325.6,240.7c0-2.7,2.1-3.9,2.2-4c-1.2-1.8-3.1-2.1-3.8-2.1c-1.6-0.2-3.1,1-3.9,1c-0.8,0-2.1-0.9-3.4-0.9
				c-1.7,0-3.4,1-4.3,2.6c-1.8,3.2-0.5,8,1.3,10.6c0.9,1.3,1.9,2.7,3.2,2.7c1.3-0.1,1.8-0.9,3.4-0.9c1.6,0,2,0.9,3.4,0.8
				c1.4,0,2.3-1.3,3.2-2.6c1-1.5,1.4-2.9,1.4-3C328.4,244.9,325.7,243.9,325.6,240.7z M324.1,229.5c-1,0-2.3,0.7-3,1.6
				c-0.7,0.8-1.2,2.1-1.1,3.2c1.2,0.1,2.3-0.6,3.1-1.5C323.8,231.9,324.2,230.7,324.1,229.5z"/>
		</g>
	</g>
</g>
</svg>
