<?xml version="1.0" encoding="utf-8"?>
<!-- Generator: Adobe Illustrator 18.1.1, SVG Export Plug-In . SVG Version: 6.00 Build 0)  -->
<svg version="1.1"
	 id="svg3070" xmlns:cc="http://creativecommons.org/ns#" xmlns:inkscape="http://www.inkscape.org/namespaces/inkscape" xmlns:dc="http://purl.org/dc/elements/1.1/" xmlns:rdf="http://www.w3.org/1999/02/22-rdf-syntax-ns#" xmlns:svg="http://www.w3.org/2000/svg" xmlns:sodipodi="http://sodipodi.sourceforge.net/DTD/sodipodi-0.dtd" inkscape:version="0.48.0 r9654" sodipodi:docname="New document 4"
	 xmlns="http://www.w3.org/2000/svg" xmlns:xlink="http://www.w3.org/1999/xlink" x="0px" y="0px" viewBox="-37.5 232.8 18 17"
	 enable-background="new -37.5 232.8 18 17" xml:space="preserve">
<sodipodi:namedview  borderopacity="1.0" id="base" pagecolor="#ffffff" fit-margin-left="0" fit-margin-top="0" showgrid="false" bordercolor="#666666" inkscape:zoom="2.8" inkscape:cx="142.93233" inkscape:cy="33.703355" inkscape:window-width="1280" fit-margin-bottom="0" inkscape:document-units="px" inkscape:pageopacity="0.0" inkscape:window-maximized="1" inkscape:window-y="-8" fit-margin-right="0" inkscape:window-height="750" inkscape:current-layer="layer1" inkscape:pageshadow="2" inkscape:window-x="-8">
	</sodipodi:namedview>
<g id="g3019" transform="matrix(1.018827,0,0,-1.018827,170.5996,498.03288)">
	<path id="path28" inkscape:connector-curvature="0" fill="#FFFFFF" d="M-200.2,243.7v11.3h-3.7v-11.3H-200.2z M-202.1,256.5
		c1.3,0,2.1,0.9,2.1,1.9c0,1.1-0.8,1.9-2.1,1.9c-1.3,0-2.1-0.8-2.1-1.9C-204.1,257.3-203.3,256.5-202.1,256.5L-202.1,256.5
		L-202.1,256.5z"/>
	<path id="path30" inkscape:connector-curvature="0" fill="#FFFFFF" d="M-198.1,243.7h3.7v6.3c0,0.3,0,0.7,0.1,0.9
		c0.3,0.7,0.9,1.4,1.9,1.4c1.4,0,1.9-1,1.9-2.5v-6h3.7v6.5c0,3.5-1.8,5.1-4.3,5.1c-2,0-2.9-1.1-3.4-1.9h0v1.6h-3.7
		C-198.1,253.9-198.1,243.7-198.1,243.7L-198.1,243.7z"/>
</g>
</svg>
