<?xml version="1.0" encoding="utf-8"?>
<!-- Generator: Adobe Illustrator 18.1.1, SVG Export Plug-In . SVG Version: 6.00 Build 0)  -->
<svg version="1.1" id="Layer_1" xmlns="http://www.w3.org/2000/svg" xmlns:xlink="http://www.w3.org/1999/xlink" x="0px" y="0px"
	 viewBox="-266 233.5 18 15" enable-background="new -266 233.5 18 15" xml:space="preserve">
<title>ico-twitter</title>
<desc>Created with Sketch.</desc>
<g id="New-icons">
	<g id="ico-twitter">
		<g id="Path">
			<path fill="#FFFFFF" d="M-257.3,237.5l0,0.6l-0.7-0.1c-2.4-0.3-4.5-1.3-6.2-3.1l-0.9-0.9l-0.2,0.6c-0.5,1.4-0.2,2.9,0.8,3.9
				c0.5,0.6,0.4,0.6-0.5,0.3c-0.3-0.1-0.6-0.2-0.6-0.1c-0.1,0.1,0.2,1.3,0.5,1.8c0.3,0.7,1,1.3,1.8,1.7l0.6,0.3l-0.8,0
				c-0.7,0-0.8,0-0.7,0.3c0.3,0.9,1.3,1.8,2.5,2.2l0.8,0.3l-0.7,0.4c-1,0.6-2.3,1-3.5,1c-0.6,0-1.1,0.1-1.1,0.1
				c0,0.1,1.6,0.9,2.5,1.2c2.8,0.9,6.1,0.5,8.6-1c1.8-1,3.5-3.1,4.4-5.1c0.4-1.1,0.9-3,0.9-4c0-0.6,0-0.7,0.8-1.4
				c0.4-0.4,0.8-0.9,0.9-1c0.1-0.3,0.1-0.3-0.6,0c-1.1,0.4-1.3,0.3-0.7-0.3c0.4-0.4,0.9-1.2,0.9-1.4c0,0-0.2,0-0.4,0.1
				c-0.2,0.1-0.8,0.3-1.2,0.5l-0.7,0.2l-0.6-0.4c-0.4-0.2-0.9-0.5-1.1-0.6c-0.7-0.2-1.7-0.2-2.3,0.1
				C-256.3,234.3-257.4,235.8-257.3,237.5z"/>
		</g>
	</g>
</g>
</svg>
